#N canvas 1025 459 802 486 10;
#X obj 521 53 soundfiler;
#X floatatom 521 75 5 0 0 0 - - -;
#X obj 521 29 r loader;
#X obj 463 175 bng 15 250 50 0 empty empty empty 17 7 0 10 -262144
-1 -1;
#N canvas 0 0 450 300 (subpatch) 0;
#X array humming 2397 float 2;
#X coords 0 1 2397 -1 200 140 1;
#X restore 484 267 graph;
#X msg 463 199 \; loader read -resize humming.wav humming \;;
#X obj 179 433 dac~;
#X obj 185 356 phasor~ 9;
#X obj 63 40 dumpOSC 9000;
#X obj 63 64 OSCroute /wiimote;
#X obj 59 96 OSCroute /forward /button /accel;
#X obj 43 205 print forward;
#X obj 96 164 print button;
#X obj 214 171 unpack f f f;
#X floatatom 196 251 5 0 0 0 - - -;
#X floatatom 249 242 5 0 0 0 - - -;
#X floatatom 313 240 5 0 0 0 - - -;
#X obj 186 382 -~ 0.5;
#X obj 183 298 expr 30+400*abs($f1);
#X connect 0 0 1 0;
#X connect 2 0 0 0;
#X connect 3 0 5 0;
#X connect 7 0 17 0;
#X connect 8 0 9 0;
#X connect 9 0 10 0;
#X connect 10 0 11 0;
#X connect 10 1 12 0;
#X connect 10 2 13 0;
#X connect 13 0 14 0;
#X connect 13 1 15 0;
#X connect 13 2 16 0;
#X connect 14 0 18 0;
#X connect 17 0 6 0;
#X connect 17 0 6 1;
#X connect 18 0 7 0;
